<svg width="278" height="48" viewBox="0 0 278 48" fill="none" xmlns="http://www.w3.org/2000/svg">
<path fill-rule="evenodd" clip-rule="evenodd" d="M70.8891 38.04C73.2079 36.1803 74.3788 33.8385 74.3788 31.0146C74.3788 28.7877 73.4834 26.8821 71.6926 25.2521C69.9019 23.645 66.9861 22.1526 62.9454 20.7751C60.6266 19.9945 59.0195 19.2828 58.1241 18.617C57.2058 17.9742 56.7466 17.2166 56.7466 16.3441C56.7466 15.288 57.2747 14.4386 58.3078 13.7728C59.3409 13.107 60.6725 12.7856 62.3026 12.7856C63.749 12.7856 65.1724 13.0381 66.5729 13.5661C67.9733 14.0942 69.0754 14.737 69.8559 15.5176L73.1161 11.0866C71.8074 9.89278 70.0855 8.90556 67.9733 8.14793C65.8382 7.3903 63.6801 7 61.499 7C58.1241 7 55.3691 7.89538 53.234 9.70911C51.0988 11.5228 50.0198 13.8187 50.0198 16.6426C50.0198 18.9844 50.9151 20.9818 52.6829 22.6118C54.4508 24.2648 57.3895 25.7571 61.4531 27.1117C63.726 27.8693 65.3331 28.581 66.2744 29.2239C67.1928 29.8667 67.6519 30.6014 67.6519 31.4049C67.6519 32.461 67.055 33.3335 65.8841 34.0222C64.6903 34.7339 63.175 35.0783 61.3154 35.0783C59.7083 35.0783 58.1471 34.8028 56.6089 34.2518C55.0706 33.7008 53.8079 33.012 52.8437 32.1626L49.4688 36.4788C50.9381 37.7874 52.7977 38.8435 55.0477 39.6471C57.2976 40.4506 59.5935 40.8409 61.9582 40.8409C65.5627 40.8409 68.5473 39.8996 70.8891 38.04ZM75.6645 13.0151V7.45917H105.327V13.0151H93.8936V40.3817H87.1208V13.0151H75.6645ZM102.48 40.3817H109.574L112.444 33.6549H128.285L131.155 40.3817H138.249L123.809 7.45917H116.898L102.48 40.3817ZM120.388 15.1732L125.898 28.0989H114.832L120.388 15.1732ZM141.693 40.3817V7.45917H165.96V13.0151H148.466V20.9588H164.491V26.5148H148.466V40.3817H141.693ZM170.529 7.45917V40.3817H177.302V26.5148H193.327V20.9588H177.302V13.0151H194.796V7.45917H170.529ZM208.204 29.0861V7.45917H214.977V29.0861C214.977 32.6447 213.829 35.4916 211.556 37.6267C209.26 39.7619 206.276 40.8409 202.602 40.8409C198.906 40.8409 195.761 39.67 193.212 37.3282L197.069 32.9891C198.148 34.2518 200.192 35.0783 202.281 35.0783C204.049 35.0783 205.472 34.5273 206.574 33.4023C207.653 32.2774 208.204 30.8539 208.204 29.0861ZM220.303 7.45917V40.3817H245.03V34.8258H227.076V26.4688H243.101V20.9129H227.076V13.0151H244.57V7.45917H220.303ZM247.486 7.45917V13.0151H258.943V40.3817H265.715V13.0151H277.149V7.45917H247.486Z" fill="white"/>
<path fill-rule="evenodd" clip-rule="evenodd" d="M23.3491 0H10.8179V12.531H23.3491V0ZM32.769 26.1044C34.5515 21.8011 35.4689 17.1888 35.4689 12.5309H23.3657C23.3657 15.5994 22.7613 18.6378 21.5871 21.4726C20.4128 24.3075 18.6917 26.8833 16.522 29.053C14.3523 31.2227 11.7765 32.9438 8.94166 34.1181C6.10681 35.2923 3.06843 35.8967 5.29049e-07 35.8967L0 48C4.65785 48 9.27009 47.0825 13.5734 45.3001C17.8767 43.5176 21.7867 40.9049 25.0803 37.6113C28.3739 34.3177 30.9865 30.4077 32.769 26.1044Z" fill="white"/>
</svg>
