<svg width="220" height="36" viewBox="0 0 220 36" fill="none" xmlns="http://www.w3.org/2000/svg">
<path d="M187.044 9.76135V5.59438H209.462V9.76135H200.821V30.2863H195.702V9.76135H187.044Z" fill="#3253ED"/>
<path d="M166.5 30.2863V5.59438H184.84V9.76135H171.618V15.6847H183.73V19.8516H171.618V26.1193H185.187V30.2863H166.5Z" fill="#3253ED"/>
<path d="M157.355 21.8146V5.59438H162.474V21.8146C162.474 24.4835 161.607 26.6187 159.889 28.22C158.154 29.8214 155.898 30.6307 153.122 30.6307C150.328 30.6307 147.951 29.7525 146.025 27.9962L148.94 24.7418C149.755 25.6889 151.3 26.3087 152.879 26.3087C154.215 26.3087 155.291 25.8955 156.123 25.0518C156.939 24.208 157.355 23.1405 157.355 21.8146Z" fill="#FF5A00"/>
<path d="M128.882 30.2863V5.59438H147.222V9.76135H134.001V15.7191H146.112V19.8861H134.001V30.2863H128.882Z" fill="#3253ED"/>
<path d="M107.088 30.2863V5.59438H125.429V9.76135H112.207V15.7191H124.318V19.8861H112.207V30.2863H107.088Z" fill="#3253ED"/>
<path d="M82.8133 30.2863H77.4517L88.3484 5.59438H93.5712L104.485 30.2863H99.1237L96.9547 25.2412H84.9822L82.8133 30.2863ZM95.1502 21.0742L90.9858 11.3799L86.7868 21.0742H95.1502Z" fill="#3253ED"/>
<path d="M57.1851 9.76135V5.59438H79.6032V9.76135H70.9621V30.2863H65.8435V9.76135H57.1851Z" fill="#3253ED"/>
<path d="M56.2136 23.261C56.2136 25.3789 55.3287 27.1353 53.5762 28.53C51.8063 29.9247 49.5506 30.6307 46.8264 30.6307C45.0392 30.6307 43.3041 30.338 41.6036 29.7353C39.9032 29.1327 38.4977 28.3406 37.3872 27.3591L39.9379 24.1219C40.6666 24.759 41.621 25.2756 42.7835 25.6889C43.9461 26.1021 45.126 26.3087 46.3406 26.3087C47.7461 26.3087 48.8912 26.0505 49.7935 25.5167C50.6785 25.0001 51.1296 24.3458 51.1296 23.5537C51.1296 22.9511 50.7826 22.4001 50.0885 21.9179C49.3771 21.4358 48.1625 20.902 46.4447 20.3338C43.3735 19.3179 41.1525 18.1986 39.8164 16.9589C38.4804 15.7363 37.8036 14.2383 37.8036 12.4819C37.8036 10.364 38.6192 8.64213 40.2329 7.28183C41.8465 5.92154 43.9287 5.25 46.4794 5.25C48.1278 5.25 49.7588 5.54272 51.3725 6.11095C52.9689 6.67917 54.2702 7.41959 55.2592 8.31497L52.7953 11.6382C52.2054 11.0528 51.3725 10.5706 50.3141 10.1746C49.2556 9.77858 48.1798 9.58917 47.0867 9.58917C45.8547 9.58917 44.8484 9.83024 44.0675 10.3296C43.2867 10.8289 42.8876 11.466 42.8876 12.2581C42.8876 12.9124 43.2347 13.4806 43.9287 13.9628C44.6054 14.4621 45.82 14.9959 47.5725 15.5814C50.6264 16.6145 52.83 17.7337 54.1835 18.939C55.5369 20.1616 56.2136 21.5908 56.2136 23.261Z" fill="#3253ED"/>
<path fill-rule="evenodd" clip-rule="evenodd" d="M17.6467 0H8.17592V9.39824H17.6467V0ZM24.766 19.5783C26.1132 16.3508 26.8065 12.8916 26.8065 9.39822H17.6592C17.6592 11.6995 17.2024 13.9783 16.315 16.1045C15.4275 18.2306 14.1267 20.1625 12.4869 21.7898C10.8471 23.4171 8.9004 24.7079 6.75788 25.5886C4.61537 26.4693 2.31904 26.9225 3.99843e-07 26.9225L0 36C3.52028 36 7.0061 35.3119 10.2584 33.9751C13.5107 32.6382 16.4659 30.6787 18.9551 28.2085C21.4443 25.7383 23.4189 22.8058 24.766 19.5783Z" fill="#FF5A00"/>
</svg>
