<svg width="76" height="60" viewBox="0 0 76 60" fill="none" xmlns="http://www.w3.org/2000/svg">
<g clip-path="url(#clip0_330_2280)">
<path d="M14.008 59.9915C21.7444 59.9915 28.016 53.7042 28.016 45.9484C28.016 38.1926 21.7444 31.9053 14.008 31.9053C6.2716 31.9053 0 38.1926 0 45.9484C0 53.7042 6.2716 59.9915 14.008 59.9915Z" fill="#1E1E1E"/>
<path d="M27.4009 0.557094C27.3251 0.425786 27.2233 0.311352 27.1019 0.220778C26.9804 0.130203 26.8419 0.0653875 26.6946 0.030288C26.5474 -0.00481151 26.3945 -0.00945887 26.2454 0.0166296C26.0963 0.0427181 25.9541 0.0989951 25.8274 0.182025C23.3548 1.78244 21.4529 4.1285 20.3958 6.88213C20.3417 7.02499 20.2906 7.16722 20.2424 7.30883C19.6429 9.11967 19.4364 11.038 19.6366 12.9354C19.8368 14.8328 20.4391 16.6653 21.4032 18.3104C29.2292 31.8943 37.0553 45.4782 44.8813 59.0621C44.9547 59.1894 45.0525 59.3008 45.1691 59.3901C45.2856 59.4794 45.4186 59.5448 45.5603 59.5824C45.7021 59.62 45.8499 59.6292 45.9953 59.6095C46.1406 59.5897 46.2806 59.5414 46.4073 59.4672C48.1498 58.4669 49.6296 57.065 50.7244 55.3775C52.4166 52.7341 52.7672 49.9085 52.6146 47.5403C52.4404 45.0789 51.7026 42.6909 50.4585 40.5618C42.7726 27.2269 35.0868 13.892 27.4009 0.557094Z" fill="#1E1E1E"/>
<path d="M50.7539 0.557094C50.6781 0.425786 50.5763 0.311352 50.4549 0.220778C50.3335 0.130203 50.1949 0.0653875 50.0476 0.030288C49.9004 -0.00481151 49.7475 -0.00945887 49.5984 0.0166296C49.4493 0.0427181 49.3071 0.0989951 49.1804 0.182025C46.7078 1.78244 44.806 4.1285 43.7488 6.88213C43.6948 7.02499 43.6436 7.16722 43.5954 7.30883C42.996 9.11967 42.7894 11.038 42.9896 12.9354C43.1898 14.8327 43.7922 16.6653 44.7562 18.3104C52.5823 31.8943 60.4083 45.4782 68.2343 59.0621C68.3078 59.1894 68.4056 59.3008 68.5221 59.3901C68.6386 59.4794 68.7716 59.5448 68.9134 59.5824C69.0552 59.62 69.203 59.6292 69.3483 59.6095C69.4936 59.5897 69.6336 59.5414 69.7603 59.4672C71.5028 58.4669 72.9826 57.065 74.0774 55.3775C75.7696 52.7341 76.1202 49.9085 75.9676 47.5403C75.7934 45.0789 75.0557 42.6909 73.8115 40.5618C66.1257 27.2269 58.4398 13.892 50.7539 0.557094Z" fill="#1E1E1E"/>
</g>
<defs>
<clipPath id="clip0_330_2280">
<rect width="76" height="60" fill="white"/>
</clipPath>
</defs>
</svg>
