<svg width="60" height="60" viewBox="0 0 60 60" fill="none" xmlns="http://www.w3.org/2000/svg">
<g clip-path="url(#clip0_330_2285)">
<mask id="mask0_330_2285" style="mask-type:luminance" maskUnits="userSpaceOnUse" x="0" y="0" width="60" height="60">
<path d="M60 0H0V60H60V0Z" fill="white"/>
</mask>
<g mask="url(#mask0_330_2285)">
<path d="M60 0H0V60H60V0Z" fill="#1E1E1E"/>
<path d="M39.9707 4.61426V7.37557H46.0087V18.4576H49.3837V7.37557H55.4095V4.61426H39.9707Z" fill="white"/>
<path d="M18.2613 4.61426L13.8431 13.7696L9.43733 4.61426H4.61426V18.4576H8.00145V8.55372L12.3091 16.9235H15.3895L19.697 8.55372V18.4576H23.072V4.61426H18.2613Z" fill="white"/>
<path d="M52.0345 50.771C51.9485 51.3233 51.7276 51.7774 51.3717 52.121C51.0404 52.4401 50.5863 52.6733 50.0217 52.8083C49.4695 52.931 48.6473 53.0046 47.7882 53.0046C46.8923 53.0046 46.1069 52.8942 45.4319 52.661C44.7814 52.4401 44.266 52.0473 43.91 51.5073C43.5419 50.9674 43.3578 50.182 43.3578 49.1634V47.752C43.3578 46.7457 43.5419 45.9602 43.91 45.4079C44.2782 44.8679 44.7814 44.4754 45.4319 44.2544C46.0946 44.0213 46.8923 43.9108 47.7882 43.9108C48.6473 43.9108 49.4695 43.9844 50.0217 44.1072C50.5863 44.2422 51.0404 44.4629 51.3717 44.7943C51.7276 45.1379 51.9485 45.592 52.0345 46.1443H55.4093C55.3111 45.0029 54.9308 44.0335 54.2558 43.2481C53.6422 42.5363 52.7831 42.0208 51.7154 41.7017C50.6845 41.3949 49.3222 41.2354 47.7882 41.2354C46.1682 41.2354 44.7691 41.4685 43.6155 41.9226C42.4497 42.389 41.5415 43.1622 40.9156 44.2299C40.3143 45.2484 40.0075 46.6229 39.9829 48.292V48.4516L40.167 48.4639L39.9829 48.4761V48.4884V48.6357C40.0075 50.3048 40.3143 51.6792 40.9156 52.6978C41.5415 53.7655 42.4497 54.5387 43.6155 55.0051C44.7691 55.4592 46.1682 55.6924 47.7882 55.6924C49.3222 55.6924 50.6845 55.5328 51.7154 55.226C52.7831 54.9069 53.6299 54.3914 54.2558 53.6796C54.9308 52.9064 55.3234 51.9246 55.4093 50.7833H52.0345V50.771Z" fill="white"/>
</g>
</g>
<defs>
<clipPath id="clip0_330_2285">
<rect width="60" height="60" fill="white"/>
</clipPath>
</defs>
</svg>
