<svg width="168" height="37" viewBox="0 0 168 37" fill="none" xmlns="http://www.w3.org/2000/svg">
<g clip-path="url(#clip0_330_2303)">
<path fill-rule="evenodd" clip-rule="evenodd" d="M20.196 0.100806C16.4191 -0.299482 12.6117 0.48703 9.29715 2.35223C5.98257 4.21744 3.32351 7.06977 1.68548 10.5172C0.0474524 13.9646 -0.489143 17.8378 0.149452 21.6045C0.788047 25.3712 2.57048 28.8464 5.25176 31.5525C7.93304 34.2586 11.3815 36.0627 15.1233 36.7169C18.865 37.3711 22.7162 36.8432 26.1476 35.2057C29.579 33.5683 32.4222 30.9018 34.2862 27.5726C36.1503 24.2435 36.9438 20.4151 36.5576 16.6139C36.1327 12.3885 34.2736 8.43947 31.2935 5.43178C28.3134 2.42408 24.3943 0.541425 20.196 0.100806ZM19.6003 28.2823C17.569 28.5565 15.5034 28.1834 13.6937 27.2154C11.884 26.2474 10.4213 24.7332 9.51116 22.8856C8.60099 21.038 8.28911 18.9498 8.61935 16.9147C8.94959 14.8795 9.90535 12.9997 11.3523 11.5392C12.7993 10.0788 14.6647 9.11134 16.6864 8.7727C18.7081 8.43407 20.7844 8.74133 22.6236 9.65131C24.4627 10.5613 25.9723 12.0282 26.94 13.846C27.9078 15.6637 28.2851 17.7409 28.0189 19.7855C27.7396 21.9361 26.7635 23.9341 25.2416 25.4701C23.7197 27.0062 21.737 27.9946 19.6003 28.2823ZM46.3897 0.832507C45.7522 0.834043 45.123 0.978571 44.5479 1.25557C43.9728 1.53258 43.4664 1.93509 43.0654 2.43382C42.6644 2.93255 42.3789 3.51495 42.2298 4.13864C42.0807 4.76234 42.0717 5.41163 42.2034 6.03929C42.6067 8.07268 44.4944 9.46204 46.5508 9.46204H58.4844L39.913 34.1897C39.7756 34.3723 39.6915 34.5897 39.6701 34.8176C39.6487 35.0456 39.6908 35.275 39.7917 35.4802C39.8926 35.6855 40.0484 35.8583 40.2415 35.9795C40.4346 36.1006 40.6574 36.1653 40.885 36.1662H70.0161C72.0711 36.1662 73.9602 34.7772 74.3635 32.7434C74.4952 32.1159 74.4863 31.4667 74.3373 30.843C74.1883 30.2194 73.903 29.637 73.5022 29.1383C73.1014 28.6395 72.5952 28.2369 72.0203 27.9597C71.4454 27.6826 70.8164 27.5378 70.1789 27.5359H55.6387L74.1959 2.82749C74.3346 2.64316 74.4195 2.4236 74.441 2.19343C74.4626 1.96326 74.42 1.7316 74.3181 1.52442C74.2161 1.31725 74.0587 1.14277 73.8637 1.02055C73.6686 0.898334 73.4436 0.833218 73.2138 0.832507H46.3897ZM162.796 0.932047C161.831 1.16279 160.974 1.71779 160.366 2.50527C159.757 3.29276 159.434 4.26558 159.45 5.26288V19.6308L136.311 1.10388C136.129 0.958958 135.911 0.868516 135.68 0.842963C135.45 0.81741 135.217 0.857783 135.009 0.959438C134.8 1.06109 134.625 1.2199 134.502 1.41759C134.379 1.61528 134.314 1.84382 134.315 2.07692V31.7435C134.299 32.7408 134.622 33.7137 135.231 34.5012C135.839 35.2887 136.696 35.8436 137.661 36.0743C138.287 36.213 138.936 36.2084 139.561 36.0609C140.185 35.9134 140.768 35.6268 141.268 35.2222C141.767 34.8176 142.17 34.3054 142.447 33.7232C142.723 33.1411 142.866 32.5039 142.865 31.8587V17.3665L166.005 35.8938C166.186 36.0386 166.405 36.129 166.635 36.1545C166.865 36.18 167.098 36.1397 167.306 36.0381C167.515 35.9364 167.69 35.7777 167.813 35.5801C167.936 35.3825 168.001 35.1541 168 34.9211V5.14623C168.001 4.50119 167.857 3.86422 167.581 3.28228C167.304 2.70035 166.901 2.18829 166.402 1.78386C165.903 1.37942 165.319 1.09293 164.695 0.945509C164.071 0.798084 163.422 0.793483 162.796 0.932047ZM102.547 8.63604C112.335 8.63604 119.648 13.84 119.648 18.495C119.648 23.1499 112.335 28.3539 102.547 28.3539C92.76 28.3539 85.447 23.1499 85.447 18.495C85.447 13.84 92.76 8.63604 102.547 8.63604ZM102.547 0.00685472C88.3806 0.00685472 76.8965 8.28434 76.8965 18.495C76.8965 28.7056 88.3806 36.9831 102.547 36.9831C116.714 36.9831 128.198 28.7056 128.198 18.495C128.198 8.28434 116.714 0.00685472 102.547 0.00685472Z" fill="#1E1E1E"/>
</g>
<defs>
<clipPath id="clip0_330_2303">
<rect width="168" height="37" fill="white"/>
</clipPath>
</defs>
</svg>
