<svg width="252" height="40" viewBox="0 0 252 40" fill="none" xmlns="http://www.w3.org/2000/svg">
<g clip-path="url(#clip0_330_2346)">
<path d="M63.759 3.54424V5.005H76.2831C77.118 5.005 78.3704 5.005 79.1927 5.84044C80.015 6.67588 80.0277 7.92905 80.0277 8.75183V21.2835C80.0277 22.1189 80.0277 23.3721 79.1927 24.1949C78.3578 25.0303 77.1054 25.0303 76.2831 25.0303H70.2361C69.1937 25.0303 67.835 25.0303 67.3264 23.8809C66.8052 22.7316 67.5349 21.6885 68.1614 20.843L76.3084 9.98221H63.7843L58.7746 16.6658C57.9346 17.7847 57.2085 18.7544 57.2085 20.0075C57.2085 21.2607 57.884 22.162 58.7746 23.3493L60.0271 25.0202C61.2795 26.6911 62.5319 28.362 64.2017 29.1974C65.8716 30.0328 67.8451 30.0328 70.5777 30.0328H75.9921C79.1295 30.0328 83.8102 30.0328 86.9475 26.8936C90.0849 23.7544 90.0849 19.1721 90.0849 17.5012V12.4885C90.0849 10.8177 90.0849 6.23538 86.9475 3.09614C83.8102 -0.0431053 79.1295 -0.0431053 75.9921 -0.0431053L67.3391 -0.0458901C66.5042 -0.0461432 65.4617 -0.04589 64.6319 0.789553C63.7969 1.625 63.7969 2.66803 63.7969 3.49841" fill="#1E1E1E"/>
<path d="M48.8315 10.0254H61.2291L46.3014 30.1267H33.9038L48.8315 10.0254Z" fill="#1E1E1E"/>
<path d="M0 13.5697C0 12.7343 0 11.6912 0.83494 10.8608C1.66988 10.0305 2.71229 10.0254 3.54217 10.0254H24.5169C27.2241 10.0254 29.2229 10.0254 30.8928 10.8608C32.5626 11.6963 33.8024 13.3672 35.0675 15.038L36.3199 16.7089C37.208 17.8937 37.886 18.7975 37.886 20.0507C37.886 21.3039 37.1599 22.2735 36.3199 23.3925L31.3102 30.076H18.7861L26.9331 19.2153C27.5581 18.3798 28.2893 17.3368 27.7681 16.1773C27.2469 15.0279 25.8907 15.0279 24.8584 15.0279H15.0416V40.0912H5.02229V15.0279H0.0126506V13.5646" fill="#1E1E1E"/>
<path d="M101.964 26.5827C101.212 27.6055 100.446 28.6131 99.6943 29.6207V30.1928H101.812C102.849 28.8105 103.391 28.089 103.391 27.2561H105.466V30.1928H107.449V27.2561H109.524C109.524 28.084 110.065 28.8055 111.103 30.1928H113.22V29.6207L110.936 26.5827C112.859 25.1396 112.859 25.1396 112.859 23.2409V22.6105H110.695V23.2409C110.695 25.5422 110.695 25.5422 108.441 25.5422H107.449V22.6055H105.466V25.5422H104.474C102.219 25.5422 102.219 25.5422 102.219 23.2409V22.6105H100.056V23.2409C100.056 25.1346 100.056 25.1346 101.964 26.5827Z" fill="#1E1E1E"/>
<path fill-rule="evenodd" clip-rule="evenodd" d="M117.145 25.5699C117.145 23.9015 117.145 23.9015 118.992 23.9015C120.839 23.9015 120.839 23.9015 120.839 25.5699H117.145ZM117.145 26.9218H118.992C120.93 26.9066 121.502 26.9369 122.154 26.7863L122.921 26.6061V25.8693C122.921 24.6212 122.921 22.2744 119.353 22.2744H118.632C115.065 22.2744 115.065 24.6187 115.065 25.8947V26.6162C115.065 27.9681 115.095 30.2364 119.012 30.2364C119.599 30.2364 120.92 30.2364 122.352 29.8769V28.2542H121.947L120.505 28.6137H118.971C117.124 28.6131 117.124 28.6131 117.124 26.9453L117.145 26.9218Z" fill="#1E1E1E"/>
<path d="M126.253 22.4814C126.253 23.6232 126.163 27.0637 124.36 29.4688V30.0561H126.569C127.877 28.3118 127.877 26.0308 127.877 24.1574H130.989V30.0561H132.973V22.4865H126.268" fill="#1E1E1E"/>
<path fill-rule="evenodd" clip-rule="evenodd" d="M137.386 25.5699C137.386 23.9015 137.386 23.9015 139.235 23.9015C141.082 23.9015 141.082 23.9015 141.082 25.5699H137.388M137.388 26.9218H139.238C141.176 26.9066 141.748 26.9369 142.4 26.7863L143.167 26.6061V25.8693C143.167 24.6212 143.167 22.2744 139.6 22.2744H138.879C135.311 22.2744 135.311 24.6187 135.311 25.8947V26.6162C135.311 27.9681 135.341 30.2364 139.258 30.2364C139.845 30.2364 141.166 30.2364 142.598 29.8769V28.2542H142.193L140.751 28.6137H139.218C137.371 28.6131 137.371 28.6131 137.371 26.9453L137.388 26.9218Z" fill="#1E1E1E"/>
<path d="M150.542 26.3291V26.1035C152.075 25.7137 152.075 24.7668 152.075 24.4048C152.075 23.6833 152.075 22.2402 148.432 22.2402C147.89 22.2402 146.628 22.2402 145.193 22.6023V24.225H145.598L147.04 23.863H148.708C149.864 23.863 149.925 23.863 149.925 24.7035C149.925 25.5314 149.925 25.5314 148.708 25.5314H147.04V26.8833H148.708C149.864 26.8833 149.925 26.8833 149.925 27.7111C149.925 28.5542 149.925 28.5542 148.708 28.5542H147.04L145.598 28.1921H145.193V29.8149C146.636 30.1744 147.901 30.1744 148.432 30.1744C152.075 30.1744 152.075 28.7314 152.075 28.0099C152.075 27.6504 152.075 26.7035 150.542 26.3263" fill="#1E1E1E"/>
<path d="M160.41 22.4814V25.3169H156.361V22.4814H154.337V30.127H156.361V27.089H160.41V30.127H162.181V22.4814H160.41Z" fill="#1E1E1E"/>
<path fill-rule="evenodd" clip-rule="evenodd" d="M168.506 26.3292C170.085 26.3292 170.085 26.3292 170.085 27.5014C170.085 28.6735 170.085 28.6735 168.506 28.6735H166.927V26.3292H168.506ZM175.59 22.5318H173.607V30.1014H175.59V22.5318ZM168.784 30.1014C171.173 30.1014 172.175 29.5748 172.175 27.5191C172.175 26.3925 172.175 24.7596 169.063 24.7596C168.612 24.7596 167.846 24.8052 166.945 25.0305V22.5039H164.961V30.0735H168.782L168.784 30.1014Z" fill="#1E1E1E"/>
<path fill-rule="evenodd" clip-rule="evenodd" d="M180.145 25.5699C180.145 23.9015 180.145 23.9015 181.992 23.9015C183.839 23.9015 183.839 23.9015 183.839 25.5699H180.145ZM180.145 26.9218H181.992C183.93 26.9066 184.502 26.9369 185.154 26.7863L185.921 26.6061V25.8693C185.921 24.6212 185.921 22.2744 182.353 22.2744H181.632C178.065 22.2744 178.065 24.6187 178.065 25.8947V26.6162C178.065 27.9681 178.095 30.2364 182.012 30.2364C182.599 30.2364 183.92 30.2364 185.352 29.8769V28.2542H184.947L183.505 28.6137H181.971C180.124 28.6131 180.124 28.6131 180.124 26.9453L180.145 26.9218Z" fill="#1E1E1E"/>
<path fill-rule="evenodd" clip-rule="evenodd" d="M194.06 26.0764C194.06 24.046 194.06 24.0916 196.742 24.0916C197.104 24.0916 197.6 24.1364 198.199 24.2718V27.5123L196.277 27.9933C194.053 27.9936 194.053 27.9936 194.053 26.0693M192.881 31.3098V33.0237C194.323 33.3857 195.487 33.3857 195.943 33.3857C200.041 33.3857 200.168 31.6111 200.168 29.5883V22.5503H199.52L198.559 23.2718C197.898 22.4136 196.289 22.3857 195.776 22.3857C191.955 22.3857 191.955 24.7908 191.955 25.8794V26.2414C191.955 27.5047 191.955 29.5832 195.194 29.5832C196.17 29.5832 197.327 29.3123 198.179 28.6819V29.3123C198.179 31.6414 198.134 31.6566 195.745 31.6566H194.708L193.266 31.2946H192.861L192.881 31.3098Z" fill="#1E1E1E"/>
<path fill-rule="evenodd" clip-rule="evenodd" d="M206.205 22.3037C202.384 22.3037 202.384 24.5594 202.384 25.924V26.6455C202.384 27.9974 202.384 30.2657 206.205 30.2657H206.926C210.746 30.2657 210.746 28.01 210.746 26.6455V25.924C210.746 24.5721 210.746 22.3037 206.926 22.3037H206.205ZM206.564 23.9721C208.682 23.9721 208.682 23.9721 208.682 26.2733C208.682 28.5746 208.682 28.5746 206.564 28.5746C204.446 28.5746 204.446 28.5746 204.446 26.2733C204.446 23.9721 204.446 23.9721 206.564 23.9721Z" fill="#1E1E1E"/>
<path fill-rule="evenodd" clip-rule="evenodd" d="M219.109 26.3296C219.109 28.5853 219.109 28.5853 216.9 28.5853C216.358 28.5853 215.668 28.5853 214.962 28.4048V24.6073L216.885 24.1263C219.109 24.1263 219.109 24.1562 219.109 26.3213M212.986 22.5238V33.1567H214.969V29.8656C215.87 30.0911 216.591 30.2706 217.677 30.2706C221.194 30.2706 221.194 27.6883 221.194 26.6504V25.9288C221.194 24.6656 221.194 22.3086 217.904 22.3086C216.222 22.3086 215.248 23.0453 214.716 23.4504L213.995 22.4883H213.004L212.986 22.5238Z" fill="#1E1E1E"/>
<path fill-rule="evenodd" clip-rule="evenodd" d="M227.205 22.3037C223.384 22.3037 223.384 24.5594 223.384 25.924V26.6455C223.384 27.9974 223.384 30.2657 227.205 30.2657H227.926C231.746 30.2657 231.746 28.01 231.746 26.6455V25.924C231.746 24.5721 231.746 22.3037 227.926 22.3037H227.205ZM227.564 23.9721C229.682 23.9721 229.682 23.9721 229.682 26.2733C229.682 28.5746 229.682 28.5746 227.564 28.5746C225.446 28.5746 225.446 28.5746 225.446 26.2733C225.446 23.9721 225.446 23.9721 227.564 23.9721Z" fill="#1E1E1E"/>
<path d="M237.578 22.3037C236.857 22.3037 235.911 22.3037 234.466 22.6657V24.2885H234.871L236.313 23.929H238.16C239.152 23.929 239.152 23.929 239.152 24.5012C239.152 24.8911 239.152 25.0126 238.386 25.1467L236.582 25.5974C235.544 25.8531 234.102 26.243 234.102 27.8075C234.102 28.8455 234.102 30.243 237.745 30.243C238.466 30.243 239.413 30.243 240.857 29.8835V28.2607H240.453C239.85 28.426 239.281 28.5619 239.056 28.6227H237.163C236.172 28.6227 236.172 28.6227 236.172 28.0505C236.172 27.7062 236.172 27.6303 236.592 27.5088L237.599 27.2379L238.74 26.9518C239.777 26.6961 241.219 26.3214 241.219 24.7417C241.219 23.7037 241.219 22.3062 237.576 22.3062" fill="#1E1E1E"/>
<path d="M250.482 30.3799L251.954 29.2812C251.413 28.5596 251.413 28.5596 251.413 27.2812V22.5976H249.429V28.0913L247.506 28.5723C245.462 28.5723 245.462 28.5723 245.462 26.4837V22.585H243.479V26.7875C243.479 28.2761 243.479 30.3571 246.489 30.3571C248.068 30.3571 249.045 29.6204 249.576 29.2153L250.462 30.3875" fill="#1E1E1E"/>
<path fill-rule="evenodd" clip-rule="evenodd" d="M100.193 4.37981V15.0127H102.356V12.076H104.069C107.004 12.076 109.306 12.076 109.306 8.22791C109.306 4.35449 107.006 4.35449 104.069 4.35449H100.198M102.361 10.1773V6.25323H104.967C106.905 6.25323 106.996 6.25323 106.996 8.22285C106.996 10.1317 106.996 10.1773 104.967 10.1773H102.361Z" fill="#1E1E1E"/>
<path fill-rule="evenodd" clip-rule="evenodd" d="M114.867 7.26562C111.047 7.26562 111.047 9.52132 111.047 10.8859V11.6074C111.047 12.9593 111.047 15.2277 114.867 15.2277H115.588C119.409 15.2277 119.409 12.972 119.409 11.6074V10.8859C119.409 9.53398 119.409 7.26562 115.588 7.26562H114.867ZM115.227 8.93398C117.344 8.93398 117.344 8.93398 117.344 11.2352C117.344 13.5365 117.344 13.5365 115.227 13.5365C113.109 13.5365 113.109 13.5365 113.109 11.2352C113.109 8.93398 113.109 8.93398 115.227 8.93398Z" fill="#1E1E1E"/>
<path d="M125.241 15.2154C125.783 15.2154 127.179 15.2154 128.632 14.8534V13.2306H128.227L126.769 13.5901H125.914C123.404 13.5901 123.404 13.5901 123.404 11.2458C123.404 8.9015 123.404 8.9015 125.251 8.9015C126.815 8.9015 126.815 8.9015 127.189 10.3901L128.993 9.93948C128.993 9.21796 128.993 7.28125 125.603 7.28125H124.882C121.314 7.28125 121.314 9.53695 121.314 10.9015V11.623C121.314 12.9749 121.314 15.2433 125.236 15.2433" fill="#1E1E1E"/>
<path d="M134.855 15.2154C135.397 15.2154 136.794 15.2154 138.246 14.8534V13.2306H137.841L136.384 13.5901H135.528C133.019 13.5901 133.019 13.5901 133.019 11.2458C133.019 8.9015 133.019 8.9015 134.866 8.9015C136.429 8.9015 136.429 8.9015 136.804 10.3901L138.608 9.93948C138.608 9.21796 138.608 7.28125 135.217 7.28125H134.496C130.929 7.28125 130.929 9.53695 130.929 10.9015V11.623C130.929 12.9749 130.929 15.2433 134.85 15.2433" fill="#1E1E1E"/>
<path d="M147.506 15.2402L148.979 14.1415C148.437 13.42 148.437 13.42 148.437 12.1415V7.45797H146.454V12.9516L144.531 13.4327C142.487 13.4327 142.487 13.4327 142.487 11.344V7.44531H140.503V11.6478C140.503 13.1365 140.503 15.2175 143.514 15.2175C145.093 15.2175 146.069 14.4808 146.601 14.0757L147.486 15.2478" fill="#1E1E1E"/>
<path fill-rule="evenodd" clip-rule="evenodd" d="M154.59 4.75955C153.614 4.75955 153.614 4.75955 153.133 4.21777L152.263 4.89372C153.209 6.11144 153.69 6.20258 155.071 6.20258H155.403C156.769 6.20258 157.265 6.1122 158.186 4.89372L157.315 4.21777C156.85 4.75955 156.85 4.75955 155.858 4.75955H154.58M158.249 15.2659L159.722 14.1671C159.18 13.4456 159.18 13.4456 159.18 12.1671V7.4836H157.196V12.9773L155.274 13.4583C153.275 13.4583 153.229 13.4583 153.229 11.3697V7.47094H151.246V11.6735C151.246 13.1621 151.246 15.2431 154.256 15.2431C155.835 15.2431 156.812 14.5064 157.343 14.1013L158.229 15.2735L158.249 15.2659Z" fill="#1E1E1E"/>
<path d="M165.47 15.2154C166.011 15.2154 167.408 15.2154 168.86 14.8534V13.2306H168.455L166.998 13.5901H166.14C163.63 13.5901 163.63 13.5901 163.63 11.2458C163.63 8.9015 163.63 8.9015 165.477 8.9015C167.041 8.9015 167.041 8.9015 167.415 10.3901L169.219 9.93948C169.219 9.21796 169.219 7.28125 165.829 7.28125H165.108C161.541 7.28125 161.541 9.53695 161.541 10.9015V11.623C161.541 12.9749 161.541 15.2433 165.462 15.2433" fill="#1E1E1E"/>
<path d="M171.542 7.46889V15.0385H173.526V12.1018H175.96C175.96 12.9297 176.501 13.6512 177.536 15.0385H179.654V14.4664L177.369 11.4284C179.292 9.98535 179.292 9.98535 179.292 8.08661V7.45624H177.129V8.08661C177.129 10.3879 177.129 10.3879 174.874 10.3879H173.523V7.45117H171.54" fill="#1E1E1E"/>
<path d="M188.747 15.2402L190.22 14.1415C189.678 13.42 189.678 13.42 189.678 12.1415V7.45797H187.695V12.9516L185.772 13.4327C183.727 13.4327 183.727 13.4327 183.727 11.344V7.44531H181.744V11.6478C181.744 13.1365 181.744 15.2175 184.754 15.2175C186.333 15.2175 187.31 14.4808 187.841 14.0757L188.727 15.2478" fill="#1E1E1E"/>
<path fill-rule="evenodd" clip-rule="evenodd" d="M194.061 10.5572C194.061 8.88881 194.061 8.88881 195.91 8.88881C197.757 8.88881 197.757 8.88881 197.757 10.5572H194.063M194.063 11.9091H195.913C197.851 11.8939 198.422 11.9243 199.075 11.7736L199.842 11.5934V10.8567C199.842 9.60855 199.842 7.26172 196.274 7.26172H195.553C191.986 7.26172 191.986 9.60602 191.986 10.882V11.6035C191.986 12.9554 192.016 15.2237 195.933 15.2237C196.52 15.2237 197.841 15.2237 199.273 14.8617V13.2389H198.868L197.426 13.5984H195.892C194.043 13.5982 194.043 13.5982 194.043 11.9301L194.063 11.9091Z" fill="#1E1E1E"/>
</g>
<defs>
<clipPath id="clip0_330_2346">
<rect width="252" height="40" fill="white"/>
</clipPath>
</defs>
</svg>
