<svg width="168" height="60" viewBox="0 0 168 60" fill="none" xmlns="http://www.w3.org/2000/svg">
<path d="M83.6411 27.7334C82.4819 27.2883 80.9657 27.1551 79.3157 27.1551H70.1291V24.3071H85.9155V19.4121H63.6631V40.594H78.736C80.832 40.594 82.3923 40.4162 83.5522 39.9708C86.0048 39.0363 87.6547 36.7669 87.6547 33.7855C87.6547 30.7597 86.0939 28.668 83.6411 27.7334ZM80.4304 35.076C80.0739 35.2096 79.5833 35.2539 78.9587 35.2539H70.1291V31.8718H78.9587C79.6724 31.8718 80.2519 31.9166 80.6981 32.139C81.2331 32.406 81.5008 32.8955 81.5008 33.5183C81.5008 34.1414 81.1887 34.809 80.4304 35.076Z" fill="#1E1E1E"/>
<path d="M105.785 19.4121H96.3311L87.6353 40.594H94.9487L96.1527 37.5235H105.963L107.212 40.594H114.481L105.785 19.4121ZM97.7579 32.8509L100.835 24.3071H101.326L104.403 32.8509H97.7579Z" fill="#1E1E1E"/>
<path d="M122.803 32.7178V40.5942H116.337V19.4121H122.803V27.1553H133.194V19.4121H139.66V40.5942H133.194V32.7178H122.803Z" fill="#1E1E1E"/>
<path d="M149.895 32.5844V40.5942H143.429V19.4121H149.895V27.3778H151.679L159.483 19.4121H167.598L157.253 29.5581L168 40.5942H159.393L151.679 32.5844H149.895Z" fill="#1E1E1E"/>
<path d="M0 7.05859H51.2842V31.0319C51.2842 37.63 47.7569 43.7272 42.0311 47.0265L25.6423 56.4704L9.25319 47.0265C3.52724 43.7272 5.87782e-06 37.63 5.87782e-06 31.0319L0 7.05859Z" fill="#1E1E1E"/>
<path fill-rule="evenodd" clip-rule="evenodd" d="M14.1475 19.4121V27.3669C15.2375 26.1385 17.2195 25.3073 19.4856 25.3073H21.9481V34.5545C21.9481 37.0147 21.2783 39.4237 20.2844 40.6082H30.9963C30.0045 39.4225 29.3363 37.0165 29.3363 34.5593V25.3073H31.799C34.065 25.3073 36.0469 26.1385 37.1369 27.3669V19.4121H14.1475Z" fill="white"/>
</svg>
