<svg width="266" height="40" viewBox="0 0 266 40" fill="none" xmlns="http://www.w3.org/2000/svg">
<g clip-path="url(#clip0_330_2294)">
<path d="M112.146 11.771C109.113 11.771 106.4 12.6764 104.112 14.1678V0.266312H97.6752V25.8855C97.6752 33.6618 104.166 39.9467 112.092 39.9467C120.019 39.9467 126.616 33.715 126.616 25.8322C126.616 17.9494 120.232 11.771 112.146 11.771ZM78.8424 12.1971C71.7136 12.8895 65.8616 18.9081 65.8616 26.0985C65.8616 33.6618 72.5116 40.0533 80.2788 40.0533C88.046 40.0533 94.696 33.715 94.696 26.0985C94.696 22.8495 93.5256 19.9201 91.5572 17.5766L77.3528 0.319574H69.0536L78.8424 12.1971ZM29.2068 27.6964L23.3016 12.783H18.7796L12.9276 27.6964L7.0224 12.783H0L10.3208 39.0945H14.8428L21.0672 23.4354L27.2916 39.0945H31.8136L42.0812 12.783H35.112L29.2068 27.6964ZM144.066 11.8242C136.032 11.8242 129.542 17.8961 129.542 25.6192C129.542 33.2889 135.234 40.0533 143.693 40.0533C148.747 40.0533 152.844 37.6565 155.77 33.6085L150.769 29.6138C149.332 32.1704 146.513 33.6618 143.746 33.6618C140.129 33.6618 136.564 31.1585 136.298 27.4834H157.312V25.5659C157.259 17.47 151.78 11.8242 144.066 11.8242ZM225.994 11.8242C217.96 11.8242 211.523 17.8961 211.523 25.9387C211.523 33.502 217.216 40 225.621 40C230.675 40 234.772 37.6032 237.698 33.5553L233.282 29.8802C231.739 32.2237 228.92 33.6085 225.515 33.6085C222.163 33.6085 218.492 31.1052 218.226 27.4301H239.134V25.2463C239.134 17.47 233.708 11.8242 225.994 11.8242ZM248.444 20.4527C248.444 18.8016 250.732 17.5233 253.711 17.5233C256.69 17.5233 259.988 18.9614 262.116 21.3049L266 16.6711C262.276 13.4754 258.552 11.8242 253.87 11.8242C248.018 11.8242 242.007 14.4341 242.007 20.4527C242.007 27.8562 248.55 28.3888 253.87 28.8149C256.85 29.028 259.51 29.241 259.51 31.1585C259.51 33.2357 256.477 34.1944 253.87 34.1944C250.466 34.1944 247.22 32.6498 245.039 30.0399L240.89 34.3542C244.188 38.2956 248.976 40 253.658 40C259.51 40 265.947 37.2836 265.947 31.0519C265.947 24.0213 259.35 23.3289 254.296 22.8495C251.051 22.4767 248.444 22.2104 248.444 20.4527ZM166.995 18.7483V12.783H160.558V39.0413H166.995V27.9095C167.846 21.731 172.9 19.2277 178.752 19.2277V12.783H178.114C173.166 12.783 169.548 14.5406 166.995 18.7483ZM187.37 18.7483V12.783H180.933V39.0413H187.37V27.9095C188.222 20.9321 194.393 19.2277 199.128 19.2277V12.783H198.436C193.542 12.783 189.924 14.4874 187.37 18.7483ZM56.1792 39.0413H62.6164V0.319574H56.1792V39.0413ZM80.2788 33.715C75.8632 33.715 72.2456 30.253 72.2456 25.9387C72.2456 21.6245 75.81 18.1092 80.2256 18.1092C84.588 18.1092 88.312 21.5712 88.312 25.9387C88.312 30.3063 84.7476 33.715 80.2788 33.715ZM112.146 33.715C107.783 33.715 104.112 30.3063 104.112 25.8855C104.112 21.4647 107.57 18.1092 112.146 18.1092C116.721 18.1092 120.232 21.5712 120.232 25.8855C120.232 30.1997 116.561 33.715 112.146 33.715ZM45.0604 39.0413H51.4976V12.783H45.0604V39.0413ZM201.841 39.0413H208.278V12.783H201.841V39.0413ZM48.1992 0C45.5924 0 43.4112 2.13049 43.4112 4.79361C43.4112 7.50999 45.6988 9.37417 48.1992 9.37417C50.9656 9.37417 53.0936 7.08389 53.0936 4.68708C53.0936 2.23702 50.8592 0 48.1992 0ZM205.033 0C202.426 0 200.192 2.13049 200.192 4.79361C200.192 7.45672 202.32 9.37417 205.139 9.37417C207.959 9.37417 209.874 7.50999 209.874 4.90013C209.874 2.29028 207.693 0 205.033 0ZM218.971 22.2104C220.035 19.6005 222.323 18.1092 225.674 18.1092C229.026 18.1092 231.101 19.7071 231.952 22.2104H218.971ZM136.99 22.2104C138.054 19.6005 140.342 18.1092 143.64 18.1092C146.992 18.1092 149.173 19.7071 150.024 22.2104C150.077 22.2104 136.99 22.2104 136.99 22.2104Z" fill="#1E1E1E"/>
</g>
<defs>
<clipPath id="clip0_330_2294">
<rect width="266" height="40" fill="white"/>
</clipPath>
</defs>
</svg>
