<svg width="168" height="49" viewBox="0 0 168 49" fill="none" xmlns="http://www.w3.org/2000/svg">
<g clip-path="url(#clip0_330_2277)">
<path d="M160.172 42.6667C163.468 42.6667 165.803 42.0658 167.542 40.7714V34.9007C165.757 36.1488 163.606 36.9346 160.584 36.9346C155.503 36.9346 153.397 32.9592 153.397 26.6724C153.397 20.062 155.961 16.6875 160.63 16.6875C163.377 16.6875 166.078 17.6582 167.497 18.5828V12.4809C165.986 11.6488 163.377 11.0479 159.806 11.0479C150.697 11.0479 145.982 17.6582 145.982 26.9035C146.027 37.0271 150.651 42.6667 160.172 42.6667ZM115.632 39.9856V34.1148C113.435 35.6403 109.681 36.9809 106.248 36.9809C101.029 36.9809 99.0607 34.4846 98.7403 29.3997H115.952V25.6092C115.952 15.0233 111.329 11.0479 104.233 11.0479C95.5359 11.0479 91.416 17.7507 91.416 26.9497C91.416 37.5356 96.5888 42.6667 105.653 42.6667C110.184 42.6667 113.526 41.4186 115.632 39.9856ZM50.3087 11.6026V23.6214H40.7871V11.6026H33.646V42.0658H40.7871V29.3535H50.3087V42.0658H57.4498V11.6026H50.3087ZM89.6307 36.3337H86.4722V11.6026H65.6896V14.1912C65.6896 21.6337 65.2318 31.2488 62.7141 36.3337H60.4253V48.9997H67.0171V42.0658H82.9931V48.9997H89.585V36.3337H89.6307ZM138.383 42.0658H146.485L135.041 25.6554L145.112 11.6026H137.925L127.854 25.6554V11.6026H120.713V42.0658H127.854V27.0884L138.383 42.0658ZM104.05 16.6875C107.575 16.6875 108.674 19.646 108.674 23.4828V24.0837H98.7403C98.9234 19.2299 100.663 16.6875 104.05 16.6875ZM79.331 36.3337H69.2602C71.2286 31.7573 71.7779 23.4365 71.7779 18.1667V17.2422H79.331V36.3337Z" fill="#1E1E1E"/>
<path d="M27.6948 42.066H20.4163V5.68585H17.1662C11.2153 5.68585 8.10245 8.69057 8.10245 13.1745C8.10245 18.2594 10.254 20.617 14.6943 23.6217L18.3564 26.1179L7.82779 42.066H0L9.47575 27.8283C4.02834 23.8991 0.961308 20.0623 0.961308 13.5906C0.961308 5.50094 6.54605 0 17.1204 0H27.649V42.066H27.6948Z" fill="#1E1E1E"/>
</g>
<defs>
<clipPath id="clip0_330_2277">
<rect width="168" height="49" fill="white"/>
</clipPath>
</defs>
</svg>
